<svg xmlns="http://www.w3.org/2000/svg" width="480" height="480" viewBox="0 0 480 480"><defs><clipPath id="egg"><path d="M0,-23 C11,-23 17,-5 17,6 C17,17 9,23 0,23 C-9,23 -17,17 -17,6 C-17,-5 -11,-23 0,-23 Z"/></clipPath><clipPath id="lantern"><ellipse cx="0" cy="0" rx="19" ry="15"/></clipPath></defs><g transform="translate(78 84) rotate(-10) scale(1.12)" opacity="0.5"><path d="M0,-17 V-27" fill="none" stroke="#f59e0b" stroke-width="1.3" stroke-linecap="round" stroke-linejoin="round"/><path d="M0,17 V24 M-2.5,24 V34 M0,24 V35 M2.5,24 V34" fill="none" stroke="#f59e0b" stroke-width="1.3" stroke-linecap="round" stroke-linejoin="round"/><ellipse cx="0" cy="0" rx="19" ry="15" fill="#dc2626"/><g clip-path="url(#lantern)"><ellipse cx="0" cy="0" rx="10.5" ry="15" fill="none" stroke="#fca5a5" stroke-width="1.3"/><path d="M0,-15 V15" fill="none" stroke="#fca5a5" stroke-width="1.3" stroke-linecap="round" stroke-linejoin="round"/></g><rect x="-8" y="-18.5" width="16" height="4.5" rx="1.4" fill="#f59e0b"/><rect x="-8" y="14" width="16" height="4.5" rx="1.4" fill="#f59e0b"/></g><g transform="translate(262 58) rotate(8) scale(0.98)" opacity="0.5"><circle cx="0" cy="-8.6" r="6.4" fill="#fb7185"/><circle cx="8.18" cy="-2.66" r="6.4" fill="#fb7185"/><circle cx="5.05" cy="6.96" r="6.4" fill="#fb7185"/><circle cx="-5.05" cy="6.96" r="6.4" fill="#fb7185"/><circle cx="-8.18" cy="-2.66" r="6.4" fill="#fb7185"/><circle cx="0" cy="0" r="3.2" fill="#f59e0b"/><path d="M0,0 L3.76,-5.18" fill="none" stroke="#fff1f2" stroke-width="0.9" stroke-linecap="round" stroke-linejoin="round"/><path d="M0,0 L6.09,1.98" fill="none" stroke="#fff1f2" stroke-width="0.9" stroke-linecap="round" stroke-linejoin="round"/><path d="M0,0 L0,6.4" fill="none" stroke="#fff1f2" stroke-width="0.9" stroke-linecap="round" stroke-linejoin="round"/><path d="M0,0 L-6.09,1.98" fill="none" stroke="#fff1f2" stroke-width="0.9" stroke-linecap="round" stroke-linejoin="round"/><path d="M0,0 L-3.76,-5.18" fill="none" stroke="#fff1f2" stroke-width="0.9" stroke-linecap="round" stroke-linejoin="round"/></g><g transform="translate(262 538) rotate(8) scale(0.98)" opacity="0.5"><circle cx="0" cy="-8.6" r="6.4" fill="#fb7185"/><circle cx="8.18" cy="-2.66" r="6.4" fill="#fb7185"/><circle cx="5.05" cy="6.96" r="6.4" fill="#fb7185"/><circle cx="-5.05" cy="6.96" r="6.4" fill="#fb7185"/><circle cx="-8.18" cy="-2.66" r="6.4" fill="#fb7185"/><circle cx="0" cy="0" r="3.2" fill="#f59e0b"/><path d="M0,0 L3.76,-5.18" fill="none" stroke="#fff1f2" stroke-width="0.9" stroke-linecap="round" stroke-linejoin="round"/><path d="M0,0 L6.09,1.98" fill="none" stroke="#fff1f2" stroke-width="0.9" stroke-linecap="round" stroke-linejoin="round"/><path d="M0,0 L0,6.4" fill="none" stroke="#fff1f2" stroke-width="0.9" stroke-linecap="round" stroke-linejoin="round"/><path d="M0,0 L-6.09,1.98" fill="none" stroke="#fff1f2" stroke-width="0.9" stroke-linecap="round" stroke-linejoin="round"/><path d="M0,0 L-3.76,-5.18" fill="none" stroke="#fff1f2" stroke-width="0.9" stroke-linecap="round" stroke-linejoin="round"/></g><g transform="translate(410 130) rotate(-6) scale(1.06)" opacity="0.5"><circle cx="0" cy="0" r="14" fill="#f59e0b"/><circle cx="0" cy="0" r="10.6" fill="none" stroke="#fef3c7" stroke-width="1.2"/><rect x="-4.2" y="-4.2" width="8.4" height="8.4" rx="0.8" fill="#fef3c7"/></g><g transform="translate(178 214) rotate(6) scale(0.98)" opacity="0.5"><path d="M0,14 L-27.41,1.8 A30,30 0 0 1 27.41,1.8 Z" fill="#dc2626"/><path d="M0,14 L-22.06,-3.24" fill="none" stroke="#fca5a5" stroke-width="1.1" stroke-linecap="round" stroke-linejoin="round"/><path d="M0,14 L-12.27,-11.17" fill="none" stroke="#fca5a5" stroke-width="1.1" stroke-linecap="round" stroke-linejoin="round"/><path d="M0,14 L0,-14" fill="none" stroke="#fca5a5" stroke-width="1.1" stroke-linecap="round" stroke-linejoin="round"/><path d="M0,14 L12.27,-11.17" fill="none" stroke="#fca5a5" stroke-width="1.1" stroke-linecap="round" stroke-linejoin="round"/><path d="M0,14 L22.06,-3.24" fill="none" stroke="#fca5a5" stroke-width="1.1" stroke-linecap="round" stroke-linejoin="round"/><circle cx="0" cy="14" r="3.2" fill="#f59e0b"/></g><g transform="translate(338 276) rotate(12) scale(1.12)" opacity="0.5"><path d="M0,-17 V-27" fill="none" stroke="#f59e0b" stroke-width="1.3" stroke-linecap="round" stroke-linejoin="round"/><path d="M0,17 V24 M-2.5,24 V34 M0,24 V35 M2.5,24 V34" fill="none" stroke="#f59e0b" stroke-width="1.3" stroke-linecap="round" stroke-linejoin="round"/><ellipse cx="0" cy="0" rx="19" ry="15" fill="#dc2626"/><g clip-path="url(#lantern)"><ellipse cx="0" cy="0" rx="10.5" ry="15" fill="none" stroke="#fca5a5" stroke-width="1.3"/><path d="M0,-15 V15" fill="none" stroke="#fca5a5" stroke-width="1.3" stroke-linecap="round" stroke-linejoin="round"/></g><rect x="-8" y="-18.5" width="16" height="4.5" rx="1.4" fill="#f59e0b"/><rect x="-8" y="14" width="16" height="4.5" rx="1.4" fill="#f59e0b"/></g><g transform="translate(66 322) rotate(-14) scale(0.94)" opacity="0.5"><circle cx="0" cy="-8.6" r="6.4" fill="#fb7185"/><circle cx="8.18" cy="-2.66" r="6.4" fill="#fb7185"/><circle cx="5.05" cy="6.96" r="6.4" fill="#fb7185"/><circle cx="-5.05" cy="6.96" r="6.4" fill="#fb7185"/><circle cx="-8.18" cy="-2.66" r="6.4" fill="#fb7185"/><circle cx="0" cy="0" r="3.2" fill="#f59e0b"/><path d="M0,0 L3.76,-5.18" fill="none" stroke="#fff1f2" stroke-width="0.9" stroke-linecap="round" stroke-linejoin="round"/><path d="M0,0 L6.09,1.98" fill="none" stroke="#fff1f2" stroke-width="0.9" stroke-linecap="round" stroke-linejoin="round"/><path d="M0,0 L0,6.4" fill="none" stroke="#fff1f2" stroke-width="0.9" stroke-linecap="round" stroke-linejoin="round"/><path d="M0,0 L-6.09,1.98" fill="none" stroke="#fff1f2" stroke-width="0.9" stroke-linecap="round" stroke-linejoin="round"/><path d="M0,0 L-3.76,-5.18" fill="none" stroke="#fff1f2" stroke-width="0.9" stroke-linecap="round" stroke-linejoin="round"/></g><g transform="translate(546 322) rotate(-14) scale(0.94)" opacity="0.5"><circle cx="0" cy="-8.6" r="6.4" fill="#fb7185"/><circle cx="8.18" cy="-2.66" r="6.4" fill="#fb7185"/><circle cx="5.05" cy="6.96" r="6.4" fill="#fb7185"/><circle cx="-5.05" cy="6.96" r="6.4" fill="#fb7185"/><circle cx="-8.18" cy="-2.66" r="6.4" fill="#fb7185"/><circle cx="0" cy="0" r="3.2" fill="#f59e0b"/><path d="M0,0 L3.76,-5.18" fill="none" stroke="#fff1f2" stroke-width="0.9" stroke-linecap="round" stroke-linejoin="round"/><path d="M0,0 L6.09,1.98" fill="none" stroke="#fff1f2" stroke-width="0.9" stroke-linecap="round" stroke-linejoin="round"/><path d="M0,0 L0,6.4" fill="none" stroke="#fff1f2" stroke-width="0.9" stroke-linecap="round" stroke-linejoin="round"/><path d="M0,0 L-6.09,1.98" fill="none" stroke="#fff1f2" stroke-width="0.9" stroke-linecap="round" stroke-linejoin="round"/><path d="M0,0 L-3.76,-5.18" fill="none" stroke="#fff1f2" stroke-width="0.9" stroke-linecap="round" stroke-linejoin="round"/></g><g transform="translate(216 394) rotate(-4) scale(1.06)" opacity="0.5"><path d="M0,-17 V-27" fill="none" stroke="#f59e0b" stroke-width="1.3" stroke-linecap="round" stroke-linejoin="round"/><path d="M0,17 V24 M-2.5,24 V34 M0,24 V35 M2.5,24 V34" fill="none" stroke="#f59e0b" stroke-width="1.3" stroke-linecap="round" stroke-linejoin="round"/><ellipse cx="0" cy="0" rx="19" ry="15" fill="#dc2626"/><g clip-path="url(#lantern)"><ellipse cx="0" cy="0" rx="10.5" ry="15" fill="none" stroke="#fca5a5" stroke-width="1.3"/><path d="M0,-15 V15" fill="none" stroke="#fca5a5" stroke-width="1.3" stroke-linecap="round" stroke-linejoin="round"/></g><rect x="-8" y="-18.5" width="16" height="4.5" rx="1.4" fill="#f59e0b"/><rect x="-8" y="14" width="16" height="4.5" rx="1.4" fill="#f59e0b"/></g><g transform="translate(-56 -56) rotate(10) scale(0.9)" opacity="0.5"><circle cx="0" cy="0" r="14" fill="#f59e0b"/><circle cx="0" cy="0" r="10.6" fill="none" stroke="#fef3c7" stroke-width="1.2"/><rect x="-4.2" y="-4.2" width="8.4" height="8.4" rx="0.8" fill="#fef3c7"/></g><g transform="translate(-56 424) rotate(10) scale(0.9)" opacity="0.5"><circle cx="0" cy="0" r="14" fill="#f59e0b"/><circle cx="0" cy="0" r="10.6" fill="none" stroke="#fef3c7" stroke-width="1.2"/><rect x="-4.2" y="-4.2" width="8.4" height="8.4" rx="0.8" fill="#fef3c7"/></g><g transform="translate(424 -56) rotate(10) scale(0.9)" opacity="0.5"><circle cx="0" cy="0" r="14" fill="#f59e0b"/><circle cx="0" cy="0" r="10.6" fill="none" stroke="#fef3c7" stroke-width="1.2"/><rect x="-4.2" y="-4.2" width="8.4" height="8.4" rx="0.8" fill="#fef3c7"/></g><g transform="translate(424 424) rotate(10) scale(0.9)" opacity="0.5"><circle cx="0" cy="0" r="14" fill="#f59e0b"/><circle cx="0" cy="0" r="10.6" fill="none" stroke="#fef3c7" stroke-width="1.2"/><rect x="-4.2" y="-4.2" width="8.4" height="8.4" rx="0.8" fill="#fef3c7"/></g><g transform="translate(28 196) rotate(4) scale(0.62)" opacity="0.5"><circle cx="0" cy="-8.6" r="6.4" fill="#fb7185"/><circle cx="8.18" cy="-2.66" r="6.4" fill="#fb7185"/><circle cx="5.05" cy="6.96" r="6.4" fill="#fb7185"/><circle cx="-5.05" cy="6.96" r="6.4" fill="#fb7185"/><circle cx="-8.18" cy="-2.66" r="6.4" fill="#fb7185"/><circle cx="0" cy="0" r="3.2" fill="#f59e0b"/><path d="M0,0 L3.76,-5.18" fill="none" stroke="#fff1f2" stroke-width="0.9" stroke-linecap="round" stroke-linejoin="round"/><path d="M0,0 L6.09,1.98" fill="none" stroke="#fff1f2" stroke-width="0.9" stroke-linecap="round" stroke-linejoin="round"/><path d="M0,0 L0,6.4" fill="none" stroke="#fff1f2" stroke-width="0.9" stroke-linecap="round" stroke-linejoin="round"/><path d="M0,0 L-6.09,1.98" fill="none" stroke="#fff1f2" stroke-width="0.9" stroke-linecap="round" stroke-linejoin="round"/><path d="M0,0 L-3.76,-5.18" fill="none" stroke="#fff1f2" stroke-width="0.9" stroke-linecap="round" stroke-linejoin="round"/></g><g transform="translate(508 196) rotate(4) scale(0.62)" opacity="0.5"><circle cx="0" cy="-8.6" r="6.4" fill="#fb7185"/><circle cx="8.18" cy="-2.66" r="6.4" fill="#fb7185"/><circle cx="5.05" cy="6.96" r="6.4" fill="#fb7185"/><circle cx="-5.05" cy="6.96" r="6.4" fill="#fb7185"/><circle cx="-8.18" cy="-2.66" r="6.4" fill="#fb7185"/><circle cx="0" cy="0" r="3.2" fill="#f59e0b"/><path d="M0,0 L3.76,-5.18" fill="none" stroke="#fff1f2" stroke-width="0.9" stroke-linecap="round" stroke-linejoin="round"/><path d="M0,0 L6.09,1.98" fill="none" stroke="#fff1f2" stroke-width="0.9" stroke-linecap="round" stroke-linejoin="round"/><path d="M0,0 L0,6.4" fill="none" stroke="#fff1f2" stroke-width="0.9" stroke-linecap="round" stroke-linejoin="round"/><path d="M0,0 L-6.09,1.98" fill="none" stroke="#fff1f2" stroke-width="0.9" stroke-linecap="round" stroke-linejoin="round"/><path d="M0,0 L-3.76,-5.18" fill="none" stroke="#fff1f2" stroke-width="0.9" stroke-linecap="round" stroke-linejoin="round"/></g><g transform="translate(165 122) rotate(0) scale(1.0)" opacity="0.42"><path d="M0,-7.0 C1.54,-1.54 1.54,-1.54 7.0,0 C1.54,1.54 1.54,1.54 0,7.0 C-1.54,1.54 -1.54,1.54 -7.0,0 C-1.54,-1.54 -1.54,-1.54 0,-7.0 Z" fill="#f59e0b"/></g><g transform="translate(338 52) rotate(12) scale(0.8)" opacity="0.42"><circle cx="0" cy="0" r="2.2" fill="#dc2626"/></g><g transform="translate(338 532) rotate(12) scale(0.8)" opacity="0.42"><circle cx="0" cy="0" r="2.2" fill="#dc2626"/></g><g transform="translate(-18 236) rotate(0) scale(1.0)" opacity="0.42"><g transform="scale(0.45)"><circle cx="0" cy="-8.6" r="6.4" fill="#fb7185"/><circle cx="8.18" cy="-2.66" r="6.4" fill="#fb7185"/><circle cx="5.05" cy="6.96" r="6.4" fill="#fb7185"/><circle cx="-5.05" cy="6.96" r="6.4" fill="#fb7185"/><circle cx="-8.18" cy="-2.66" r="6.4" fill="#fb7185"/><circle cx="0" cy="0" r="3.2" fill="#f59e0b"/><path d="M0,0 L3.76,-5.18" fill="none" stroke="#fff1f2" stroke-width="0.9" stroke-linecap="round" stroke-linejoin="round"/><path d="M0,0 L6.09,1.98" fill="none" stroke="#fff1f2" stroke-width="0.9" stroke-linecap="round" stroke-linejoin="round"/><path d="M0,0 L0,6.4" fill="none" stroke="#fff1f2" stroke-width="0.9" stroke-linecap="round" stroke-linejoin="round"/><path d="M0,0 L-6.09,1.98" fill="none" stroke="#fff1f2" stroke-width="0.9" stroke-linecap="round" stroke-linejoin="round"/><path d="M0,0 L-3.76,-5.18" fill="none" stroke="#fff1f2" stroke-width="0.9" stroke-linecap="round" stroke-linejoin="round"/></g></g><g transform="translate(462 236) rotate(0) scale(1.0)" opacity="0.42"><g transform="scale(0.45)"><circle cx="0" cy="-8.6" r="6.4" fill="#fb7185"/><circle cx="8.18" cy="-2.66" r="6.4" fill="#fb7185"/><circle cx="5.05" cy="6.96" r="6.4" fill="#fb7185"/><circle cx="-5.05" cy="6.96" r="6.4" fill="#fb7185"/><circle cx="-8.18" cy="-2.66" r="6.4" fill="#fb7185"/><circle cx="0" cy="0" r="3.2" fill="#f59e0b"/><path d="M0,0 L3.76,-5.18" fill="none" stroke="#fff1f2" stroke-width="0.9" stroke-linecap="round" stroke-linejoin="round"/><path d="M0,0 L6.09,1.98" fill="none" stroke="#fff1f2" stroke-width="0.9" stroke-linecap="round" stroke-linejoin="round"/><path d="M0,0 L0,6.4" fill="none" stroke="#fff1f2" stroke-width="0.9" stroke-linecap="round" stroke-linejoin="round"/><path d="M0,0 L-6.09,1.98" fill="none" stroke="#fff1f2" stroke-width="0.9" stroke-linecap="round" stroke-linejoin="round"/><path d="M0,0 L-3.76,-5.18" fill="none" stroke="#fff1f2" stroke-width="0.9" stroke-linecap="round" stroke-linejoin="round"/></g></g><g transform="translate(254 152) rotate(20) scale(0.7)" opacity="0.42"><path d="M0,-7.0 C1.54,-1.54 1.54,-1.54 7.0,0 C1.54,1.54 1.54,1.54 0,7.0 C-1.54,1.54 -1.54,1.54 -7.0,0 C-1.54,-1.54 -1.54,-1.54 0,-7.0 Z" fill="#f59e0b"/></g><g transform="translate(108 218) rotate(0) scale(1.0)" opacity="0.42"><circle cx="0" cy="0" r="2.2" fill="#dc2626"/></g><g transform="translate(264 304) rotate(0) scale(1.0)" opacity="0.42"><g transform="scale(0.45)"><circle cx="0" cy="-8.6" r="6.4" fill="#fb7185"/><circle cx="8.18" cy="-2.66" r="6.4" fill="#fb7185"/><circle cx="5.05" cy="6.96" r="6.4" fill="#fb7185"/><circle cx="-5.05" cy="6.96" r="6.4" fill="#fb7185"/><circle cx="-8.18" cy="-2.66" r="6.4" fill="#fb7185"/><circle cx="0" cy="0" r="3.2" fill="#f59e0b"/><path d="M0,0 L3.76,-5.18" fill="none" stroke="#fff1f2" stroke-width="0.9" stroke-linecap="round" stroke-linejoin="round"/><path d="M0,0 L6.09,1.98" fill="none" stroke="#fff1f2" stroke-width="0.9" stroke-linecap="round" stroke-linejoin="round"/><path d="M0,0 L0,6.4" fill="none" stroke="#fff1f2" stroke-width="0.9" stroke-linecap="round" stroke-linejoin="round"/><path d="M0,0 L-6.09,1.98" fill="none" stroke="#fff1f2" stroke-width="0.9" stroke-linecap="round" stroke-linejoin="round"/><path d="M0,0 L-3.76,-5.18" fill="none" stroke="#fff1f2" stroke-width="0.9" stroke-linecap="round" stroke-linejoin="round"/></g></g><g transform="translate(140 -32) rotate(15) scale(0.9)" opacity="0.42"><path d="M0,-7.0 C1.54,-1.54 1.54,-1.54 7.0,0 C1.54,1.54 1.54,1.54 0,7.0 C-1.54,1.54 -1.54,1.54 -7.0,0 C-1.54,-1.54 -1.54,-1.54 0,-7.0 Z" fill="#f59e0b"/></g><g transform="translate(140 448) rotate(15) scale(0.9)" opacity="0.42"><path d="M0,-7.0 C1.54,-1.54 1.54,-1.54 7.0,0 C1.54,1.54 1.54,1.54 0,7.0 C-1.54,1.54 -1.54,1.54 -7.0,0 C-1.54,-1.54 -1.54,-1.54 0,-7.0 Z" fill="#f59e0b"/></g><g transform="translate(332 376) rotate(0) scale(0.8)" opacity="0.42"><circle cx="0" cy="0" r="2.2" fill="#dc2626"/></g><g transform="translate(24 410) rotate(0) scale(1.0)" opacity="0.42"><g transform="scale(0.45)"><circle cx="0" cy="-8.6" r="6.4" fill="#fb7185"/><circle cx="8.18" cy="-2.66" r="6.4" fill="#fb7185"/><circle cx="5.05" cy="6.96" r="6.4" fill="#fb7185"/><circle cx="-5.05" cy="6.96" r="6.4" fill="#fb7185"/><circle cx="-8.18" cy="-2.66" r="6.4" fill="#fb7185"/><circle cx="0" cy="0" r="3.2" fill="#f59e0b"/><path d="M0,0 L3.76,-5.18" fill="none" stroke="#fff1f2" stroke-width="0.9" stroke-linecap="round" stroke-linejoin="round"/><path d="M0,0 L6.09,1.98" fill="none" stroke="#fff1f2" stroke-width="0.9" stroke-linecap="round" stroke-linejoin="round"/><path d="M0,0 L0,6.4" fill="none" stroke="#fff1f2" stroke-width="0.9" stroke-linecap="round" stroke-linejoin="round"/><path d="M0,0 L-6.09,1.98" fill="none" stroke="#fff1f2" stroke-width="0.9" stroke-linecap="round" stroke-linejoin="round"/><path d="M0,0 L-3.76,-5.18" fill="none" stroke="#fff1f2" stroke-width="0.9" stroke-linecap="round" stroke-linejoin="round"/></g></g><g transform="translate(504 410) rotate(0) scale(1.0)" opacity="0.42"><g transform="scale(0.45)"><circle cx="0" cy="-8.6" r="6.4" fill="#fb7185"/><circle cx="8.18" cy="-2.66" r="6.4" fill="#fb7185"/><circle cx="5.05" cy="6.96" r="6.4" fill="#fb7185"/><circle cx="-5.05" cy="6.96" r="6.4" fill="#fb7185"/><circle cx="-8.18" cy="-2.66" r="6.4" fill="#fb7185"/><circle cx="0" cy="0" r="3.2" fill="#f59e0b"/><path d="M0,0 L3.76,-5.18" fill="none" stroke="#fff1f2" stroke-width="0.9" stroke-linecap="round" stroke-linejoin="round"/><path d="M0,0 L6.09,1.98" fill="none" stroke="#fff1f2" stroke-width="0.9" stroke-linecap="round" stroke-linejoin="round"/><path d="M0,0 L0,6.4" fill="none" stroke="#fff1f2" stroke-width="0.9" stroke-linecap="round" stroke-linejoin="round"/><path d="M0,0 L-6.09,1.98" fill="none" stroke="#fff1f2" stroke-width="0.9" stroke-linecap="round" stroke-linejoin="round"/><path d="M0,0 L-3.76,-5.18" fill="none" stroke="#fff1f2" stroke-width="0.9" stroke-linecap="round" stroke-linejoin="round"/></g></g><g transform="translate(396 204) rotate(10) scale(0.75)" opacity="0.42"><path d="M0,-7.0 C1.54,-1.54 1.54,-1.54 7.0,0 C1.54,1.54 1.54,1.54 0,7.0 C-1.54,1.54 -1.54,1.54 -7.0,0 C-1.54,-1.54 -1.54,-1.54 0,-7.0 Z" fill="#f59e0b"/></g><g transform="translate(-28 330) rotate(0) scale(1.0)" opacity="0.42"><circle cx="0" cy="0" r="2.2" fill="#dc2626"/></g><g transform="translate(452 330) rotate(0) scale(1.0)" opacity="0.42"><circle cx="0" cy="0" r="2.2" fill="#dc2626"/></g><g transform="translate(196 306) rotate(0) scale(0.8)" opacity="0.42"><g transform="scale(0.45)"><circle cx="0" cy="-8.6" r="6.4" fill="#fb7185"/><circle cx="8.18" cy="-2.66" r="6.4" fill="#fb7185"/><circle cx="5.05" cy="6.96" r="6.4" fill="#fb7185"/><circle cx="-5.05" cy="6.96" r="6.4" fill="#fb7185"/><circle cx="-8.18" cy="-2.66" r="6.4" fill="#fb7185"/><circle cx="0" cy="0" r="3.2" fill="#f59e0b"/><path d="M0,0 L3.76,-5.18" fill="none" stroke="#fff1f2" stroke-width="0.9" stroke-linecap="round" stroke-linejoin="round"/><path d="M0,0 L6.09,1.98" fill="none" stroke="#fff1f2" stroke-width="0.9" stroke-linecap="round" stroke-linejoin="round"/><path d="M0,0 L0,6.4" fill="none" stroke="#fff1f2" stroke-width="0.9" stroke-linecap="round" stroke-linejoin="round"/><path d="M0,0 L-6.09,1.98" fill="none" stroke="#fff1f2" stroke-width="0.9" stroke-linecap="round" stroke-linejoin="round"/><path d="M0,0 L-3.76,-5.18" fill="none" stroke="#fff1f2" stroke-width="0.9" stroke-linecap="round" stroke-linejoin="round"/></g></g><g transform="translate(20 30) rotate(0) scale(0.9)" opacity="0.42"><path d="M0,-7.0 C1.54,-1.54 1.54,-1.54 7.0,0 C1.54,1.54 1.54,1.54 0,7.0 C-1.54,1.54 -1.54,1.54 -7.0,0 C-1.54,-1.54 -1.54,-1.54 0,-7.0 Z" fill="#f59e0b"/></g><g transform="translate(20 510) rotate(0) scale(0.9)" opacity="0.42"><path d="M0,-7.0 C1.54,-1.54 1.54,-1.54 7.0,0 C1.54,1.54 1.54,1.54 0,7.0 C-1.54,1.54 -1.54,1.54 -7.0,0 C-1.54,-1.54 -1.54,-1.54 0,-7.0 Z" fill="#f59e0b"/></g><g transform="translate(500 30) rotate(0) scale(0.9)" opacity="0.42"><path d="M0,-7.0 C1.54,-1.54 1.54,-1.54 7.0,0 C1.54,1.54 1.54,1.54 0,7.0 C-1.54,1.54 -1.54,1.54 -7.0,0 C-1.54,-1.54 -1.54,-1.54 0,-7.0 Z" fill="#f59e0b"/></g><g transform="translate(500 510) rotate(0) scale(0.9)" opacity="0.42"><path d="M0,-7.0 C1.54,-1.54 1.54,-1.54 7.0,0 C1.54,1.54 1.54,1.54 0,7.0 C-1.54,1.54 -1.54,1.54 -7.0,0 C-1.54,-1.54 -1.54,-1.54 0,-7.0 Z" fill="#f59e0b"/></g><g transform="translate(124 24) rotate(0) scale(1.0)" opacity="0.42"><g transform="scale(0.45)"><circle cx="0" cy="-8.6" r="6.4" fill="#fb7185"/><circle cx="8.18" cy="-2.66" r="6.4" fill="#fb7185"/><circle cx="5.05" cy="6.96" r="6.4" fill="#fb7185"/><circle cx="-5.05" cy="6.96" r="6.4" fill="#fb7185"/><circle cx="-8.18" cy="-2.66" r="6.4" fill="#fb7185"/><circle cx="0" cy="0" r="3.2" fill="#f59e0b"/><path d="M0,0 L3.76,-5.18" fill="none" stroke="#fff1f2" stroke-width="0.9" stroke-linecap="round" stroke-linejoin="round"/><path d="M0,0 L6.09,1.98" fill="none" stroke="#fff1f2" stroke-width="0.9" stroke-linecap="round" stroke-linejoin="round"/><path d="M0,0 L0,6.4" fill="none" stroke="#fff1f2" stroke-width="0.9" stroke-linecap="round" stroke-linejoin="round"/><path d="M0,0 L-6.09,1.98" fill="none" stroke="#fff1f2" stroke-width="0.9" stroke-linecap="round" stroke-linejoin="round"/><path d="M0,0 L-3.76,-5.18" fill="none" stroke="#fff1f2" stroke-width="0.9" stroke-linecap="round" stroke-linejoin="round"/></g></g><g transform="translate(124 504) rotate(0) scale(1.0)" opacity="0.42"><g transform="scale(0.45)"><circle cx="0" cy="-8.6" r="6.4" fill="#fb7185"/><circle cx="8.18" cy="-2.66" r="6.4" fill="#fb7185"/><circle cx="5.05" cy="6.96" r="6.4" fill="#fb7185"/><circle cx="-5.05" cy="6.96" r="6.4" fill="#fb7185"/><circle cx="-8.18" cy="-2.66" r="6.4" fill="#fb7185"/><circle cx="0" cy="0" r="3.2" fill="#f59e0b"/><path d="M0,0 L3.76,-5.18" fill="none" stroke="#fff1f2" stroke-width="0.9" stroke-linecap="round" stroke-linejoin="round"/><path d="M0,0 L6.09,1.98" fill="none" stroke="#fff1f2" stroke-width="0.9" stroke-linecap="round" stroke-linejoin="round"/><path d="M0,0 L0,6.4" fill="none" stroke="#fff1f2" stroke-width="0.9" stroke-linecap="round" stroke-linejoin="round"/><path d="M0,0 L-6.09,1.98" fill="none" stroke="#fff1f2" stroke-width="0.9" stroke-linecap="round" stroke-linejoin="round"/><path d="M0,0 L-3.76,-5.18" fill="none" stroke="#fff1f2" stroke-width="0.9" stroke-linecap="round" stroke-linejoin="round"/></g></g><g transform="translate(300 -32) rotate(0) scale(0.9)" opacity="0.42"><circle cx="0" cy="0" r="2.2" fill="#dc2626"/></g><g transform="translate(300 448) rotate(0) scale(0.9)" opacity="0.42"><circle cx="0" cy="0" r="2.2" fill="#dc2626"/></g></svg>
