<svg xmlns="http://www.w3.org/2000/svg" width="480" height="480" viewBox="0 0 480 480"><defs><clipPath id="egg"><path d="M0,-23 C11,-23 17,-5 17,6 C17,17 9,23 0,23 C-9,23 -17,17 -17,6 C-17,-5 -11,-23 0,-23 Z"/></clipPath><clipPath id="lantern"><ellipse cx="0" cy="0" rx="19" ry="15"/></clipPath></defs><g transform="translate(78 84) rotate(-10) scale(1.12)" opacity="0.5"><path d="M0,-7 L0,-22" fill="none" stroke="#f59e0b" stroke-width="2.0" stroke-linecap="round" stroke-linejoin="round"/><circle cx="0" cy="-27.5" r="1.5" fill="#fde68a"/><path d="M3.5,-6.06 L7.48,-12.96" fill="none" stroke="#f59e0b" stroke-width="2.0" stroke-linecap="round" stroke-linejoin="round"/><circle cx="10.23" cy="-17.72" r="1.1" fill="#fde68a"/><path d="M6.06,-3.5 L19.05,-11" fill="none" stroke="#f59e0b" stroke-width="2.0" stroke-linecap="round" stroke-linejoin="round"/><circle cx="23.82" cy="-13.75" r="1.5" fill="#fde68a"/><path d="M7,0 L14.96,0" fill="none" stroke="#f59e0b" stroke-width="2.0" stroke-linecap="round" stroke-linejoin="round"/><circle cx="20.46" cy="0" r="1.1" fill="#fde68a"/><path d="M6.06,3.5 L19.05,11" fill="none" stroke="#f59e0b" stroke-width="2.0" stroke-linecap="round" stroke-linejoin="round"/><circle cx="23.82" cy="13.75" r="1.5" fill="#fde68a"/><path d="M3.5,6.06 L7.48,12.96" fill="none" stroke="#f59e0b" stroke-width="2.0" stroke-linecap="round" stroke-linejoin="round"/><circle cx="10.23" cy="17.72" r="1.1" fill="#fde68a"/><path d="M0,7 L0,22" fill="none" stroke="#f59e0b" stroke-width="2.0" stroke-linecap="round" stroke-linejoin="round"/><circle cx="0" cy="27.5" r="1.5" fill="#fde68a"/><path d="M-3.5,6.06 L-7.48,12.96" fill="none" stroke="#f59e0b" stroke-width="2.0" stroke-linecap="round" stroke-linejoin="round"/><circle cx="-10.23" cy="17.72" r="1.1" fill="#fde68a"/><path d="M-6.06,3.5 L-19.05,11" fill="none" stroke="#f59e0b" stroke-width="2.0" stroke-linecap="round" stroke-linejoin="round"/><circle cx="-23.82" cy="13.75" r="1.5" fill="#fde68a"/><path d="M-7,0 L-14.96,0" fill="none" stroke="#f59e0b" stroke-width="2.0" stroke-linecap="round" stroke-linejoin="round"/><circle cx="-20.46" cy="0" r="1.1" fill="#fde68a"/><path d="M-6.06,-3.5 L-19.05,-11" fill="none" stroke="#f59e0b" stroke-width="2.0" stroke-linecap="round" stroke-linejoin="round"/><circle cx="-23.82" cy="-13.75" r="1.5" fill="#fde68a"/><path d="M-3.5,-6.06 L-7.48,-12.96" fill="none" stroke="#f59e0b" stroke-width="2.0" stroke-linecap="round" stroke-linejoin="round"/><circle cx="-10.23" cy="-17.72" r="1.1" fill="#fde68a"/><circle cx="0" cy="0" r="2.4" fill="#fde68a"/></g><g transform="translate(262 58) rotate(8) scale(0.98)" opacity="0.5"><path d="M0,19 C-4,26 4,31 0,38" fill="none" stroke="#8b5cf6" stroke-width="1.2" stroke-linecap="round" stroke-linejoin="round"/><ellipse cx="0" cy="0" rx="13" ry="16" fill="#ec4899"/><path d="M0,15 L-3.5,20 L3.5,20 Z" fill="#ec4899"/><path d="M-7,-7 C-6,-10 -4,-12 -1,-12" fill="none" stroke="#fce7f3" stroke-width="1.6" stroke-linecap="round" stroke-linejoin="round"/></g><g transform="translate(262 538) rotate(8) scale(0.98)" opacity="0.5"><path d="M0,19 C-4,26 4,31 0,38" fill="none" stroke="#8b5cf6" stroke-width="1.2" stroke-linecap="round" stroke-linejoin="round"/><ellipse cx="0" cy="0" rx="13" ry="16" fill="#ec4899"/><path d="M0,15 L-3.5,20 L3.5,20 Z" fill="#ec4899"/><path d="M-7,-7 C-6,-10 -4,-12 -1,-12" fill="none" stroke="#fce7f3" stroke-width="1.6" stroke-linecap="round" stroke-linejoin="round"/></g><g transform="translate(410 130) rotate(-6) scale(1.06)" opacity="0.5"><path d="M0,-6 L0,-17" fill="none" stroke="#3b82f6" stroke-width="2.0" stroke-linecap="round" stroke-linejoin="round"/><circle cx="0" cy="-22.5" r="1.5" fill="#fde68a"/><path d="M3.53,-4.85 L6.79,-9.35" fill="none" stroke="#3b82f6" stroke-width="2.0" stroke-linecap="round" stroke-linejoin="round"/><circle cx="10.03" cy="-13.8" r="1.1" fill="#fde68a"/><path d="M5.71,-1.85 L16.17,-5.25" fill="none" stroke="#3b82f6" stroke-width="2.0" stroke-linecap="round" stroke-linejoin="round"/><circle cx="21.4" cy="-6.95" r="1.5" fill="#fde68a"/><path d="M5.71,1.85 L10.99,3.57" fill="none" stroke="#3b82f6" stroke-width="2.0" stroke-linecap="round" stroke-linejoin="round"/><circle cx="16.23" cy="5.27" r="1.1" fill="#fde68a"/><path d="M3.53,4.85 L9.99,13.75" fill="none" stroke="#3b82f6" stroke-width="2.0" stroke-linecap="round" stroke-linejoin="round"/><circle cx="13.23" cy="18.2" r="1.5" fill="#fde68a"/><path d="M0,6 L0,11.56" fill="none" stroke="#3b82f6" stroke-width="2.0" stroke-linecap="round" stroke-linejoin="round"/><circle cx="0" cy="17.06" r="1.1" fill="#fde68a"/><path d="M-3.53,4.85 L-9.99,13.75" fill="none" stroke="#3b82f6" stroke-width="2.0" stroke-linecap="round" stroke-linejoin="round"/><circle cx="-13.23" cy="18.2" r="1.5" fill="#fde68a"/><path d="M-5.71,1.85 L-10.99,3.57" fill="none" stroke="#3b82f6" stroke-width="2.0" stroke-linecap="round" stroke-linejoin="round"/><circle cx="-16.23" cy="5.27" r="1.1" fill="#fde68a"/><path d="M-5.71,-1.85 L-16.17,-5.25" fill="none" stroke="#3b82f6" stroke-width="2.0" stroke-linecap="round" stroke-linejoin="round"/><circle cx="-21.4" cy="-6.95" r="1.5" fill="#fde68a"/><path d="M-3.53,-4.85 L-6.79,-9.35" fill="none" stroke="#3b82f6" stroke-width="2.0" stroke-linecap="round" stroke-linejoin="round"/><circle cx="-10.03" cy="-13.8" r="1.1" fill="#fde68a"/><circle cx="0" cy="0" r="2.4" fill="#fde68a"/></g><g transform="translate(178 214) rotate(6) scale(0.98)" opacity="0.5"><path d="M-18,6 C-12,-8 -6,10 0,-2 C6,-12 12,8 18,-6" fill="none" stroke="#8b5cf6" stroke-width="2.2" stroke-linecap="round" stroke-linejoin="round"/></g><g transform="translate(338 276) rotate(12) scale(1.12)" opacity="0.5"><path d="M0,-8 L0,-24" fill="none" stroke="#ec4899" stroke-width="2.0" stroke-linecap="round" stroke-linejoin="round"/><circle cx="0" cy="-29.5" r="1.5" fill="#fde68a"/><path d="M3.47,-7.21 L7.08,-14.7" fill="none" stroke="#ec4899" stroke-width="2.0" stroke-linecap="round" stroke-linejoin="round"/><circle cx="9.47" cy="-19.66" r="1.1" fill="#fde68a"/><path d="M6.25,-4.99 L18.76,-14.96" fill="none" stroke="#ec4899" stroke-width="2.0" stroke-linecap="round" stroke-linejoin="round"/><circle cx="23.06" cy="-18.39" r="1.5" fill="#fde68a"/><path d="M7.8,-1.78 L15.91,-3.63" fill="none" stroke="#ec4899" stroke-width="2.0" stroke-linecap="round" stroke-linejoin="round"/><circle cx="21.27" cy="-4.86" r="1.1" fill="#fde68a"/><path d="M7.8,1.78 L23.4,5.34" fill="none" stroke="#ec4899" stroke-width="2.0" stroke-linecap="round" stroke-linejoin="round"/><circle cx="28.76" cy="6.56" r="1.5" fill="#fde68a"/><path d="M6.25,4.99 L12.76,10.18" fill="none" stroke="#ec4899" stroke-width="2.0" stroke-linecap="round" stroke-linejoin="round"/><circle cx="17.06" cy="13.6" r="1.1" fill="#fde68a"/><path d="M3.47,7.21 L10.41,21.62" fill="none" stroke="#ec4899" stroke-width="2.0" stroke-linecap="round" stroke-linejoin="round"/><circle cx="12.8" cy="26.58" r="1.5" fill="#fde68a"/><path d="M0,8 L0,16.32" fill="none" stroke="#ec4899" stroke-width="2.0" stroke-linecap="round" stroke-linejoin="round"/><circle cx="0" cy="21.82" r="1.1" fill="#fde68a"/><path d="M-3.47,7.21 L-10.41,21.62" fill="none" stroke="#ec4899" stroke-width="2.0" stroke-linecap="round" stroke-linejoin="round"/><circle cx="-12.8" cy="26.58" r="1.5" fill="#fde68a"/><path d="M-6.25,4.99 L-12.76,10.18" fill="none" stroke="#ec4899" stroke-width="2.0" stroke-linecap="round" stroke-linejoin="round"/><circle cx="-17.06" cy="13.6" r="1.1" fill="#fde68a"/><path d="M-7.8,1.78 L-23.4,5.34" fill="none" stroke="#ec4899" stroke-width="2.0" stroke-linecap="round" stroke-linejoin="round"/><circle cx="-28.76" cy="6.56" r="1.5" fill="#fde68a"/><path d="M-7.8,-1.78 L-15.91,-3.63" fill="none" stroke="#ec4899" stroke-width="2.0" stroke-linecap="round" stroke-linejoin="round"/><circle cx="-21.27" cy="-4.86" r="1.1" fill="#fde68a"/><path d="M-6.25,-4.99 L-18.76,-14.96" fill="none" stroke="#ec4899" stroke-width="2.0" stroke-linecap="round" stroke-linejoin="round"/><circle cx="-23.06" cy="-18.39" r="1.5" fill="#fde68a"/><path d="M-3.47,-7.21 L-7.08,-14.7" fill="none" stroke="#ec4899" stroke-width="2.0" stroke-linecap="round" stroke-linejoin="round"/><circle cx="-9.47" cy="-19.66" r="1.1" fill="#fde68a"/><circle cx="0" cy="0" r="2.4" fill="#fde68a"/></g><g transform="translate(66 322) rotate(-14) scale(0.94)" opacity="0.5"><rect x="-12" y="-9" width="9" height="3.6" rx="1.2" fill="#f59e0b" transform="rotate(-25 -8 -7)"/><rect x="4" y="3" width="9" height="3.6" rx="1.2" fill="#3b82f6" transform="rotate(35 8 5)"/><circle cx="8" cy="-9" r="2.3" fill="#ec4899"/><circle cx="-8" cy="8" r="1.9" fill="#3b82f6"/><circle cx="0" cy="-1" r="1.5" fill="#f59e0b"/></g><g transform="translate(546 322) rotate(-14) scale(0.94)" opacity="0.5"><rect x="-12" y="-9" width="9" height="3.6" rx="1.2" fill="#f59e0b" transform="rotate(-25 -8 -7)"/><rect x="4" y="3" width="9" height="3.6" rx="1.2" fill="#3b82f6" transform="rotate(35 8 5)"/><circle cx="8" cy="-9" r="2.3" fill="#ec4899"/><circle cx="-8" cy="8" r="1.9" fill="#3b82f6"/><circle cx="0" cy="-1" r="1.5" fill="#f59e0b"/></g><g transform="translate(216 394) rotate(-4) scale(1.06)" opacity="0.5"><path d="M0,-6 L0,-18" fill="none" stroke="#8b5cf6" stroke-width="2.0" stroke-linecap="round" stroke-linejoin="round"/><circle cx="0" cy="-23.5" r="1.5" fill="#fde68a"/><path d="M3.53,-4.85 L7.19,-9.9" fill="none" stroke="#8b5cf6" stroke-width="2.0" stroke-linecap="round" stroke-linejoin="round"/><circle cx="10.43" cy="-14.35" r="1.1" fill="#fde68a"/><path d="M5.71,-1.85 L17.12,-5.56" fill="none" stroke="#8b5cf6" stroke-width="2.0" stroke-linecap="round" stroke-linejoin="round"/><circle cx="22.35" cy="-7.26" r="1.5" fill="#fde68a"/><path d="M5.71,1.85 L11.64,3.78" fill="none" stroke="#8b5cf6" stroke-width="2.0" stroke-linecap="round" stroke-linejoin="round"/><circle cx="16.87" cy="5.48" r="1.1" fill="#fde68a"/><path d="M3.53,4.85 L10.58,14.56" fill="none" stroke="#8b5cf6" stroke-width="2.0" stroke-linecap="round" stroke-linejoin="round"/><circle cx="13.81" cy="19.01" r="1.5" fill="#fde68a"/><path d="M0,6 L0,12.24" fill="none" stroke="#8b5cf6" stroke-width="2.0" stroke-linecap="round" stroke-linejoin="round"/><circle cx="0" cy="17.74" r="1.1" fill="#fde68a"/><path d="M-3.53,4.85 L-10.58,14.56" fill="none" stroke="#8b5cf6" stroke-width="2.0" stroke-linecap="round" stroke-linejoin="round"/><circle cx="-13.81" cy="19.01" r="1.5" fill="#fde68a"/><path d="M-5.71,1.85 L-11.64,3.78" fill="none" stroke="#8b5cf6" stroke-width="2.0" stroke-linecap="round" stroke-linejoin="round"/><circle cx="-16.87" cy="5.48" r="1.1" fill="#fde68a"/><path d="M-5.71,-1.85 L-17.12,-5.56" fill="none" stroke="#8b5cf6" stroke-width="2.0" stroke-linecap="round" stroke-linejoin="round"/><circle cx="-22.35" cy="-7.26" r="1.5" fill="#fde68a"/><path d="M-3.53,-4.85 L-7.19,-9.9" fill="none" stroke="#8b5cf6" stroke-width="2.0" stroke-linecap="round" stroke-linejoin="round"/><circle cx="-10.43" cy="-14.35" r="1.1" fill="#fde68a"/><circle cx="0" cy="0" r="2.4" fill="#fde68a"/></g><g transform="translate(-56 -56) rotate(10) scale(0.9)" opacity="0.5"><path d="M0,19 C-4,26 4,31 0,38" fill="none" stroke="#f59e0b" stroke-width="1.2" stroke-linecap="round" stroke-linejoin="round"/><ellipse cx="0" cy="0" rx="13" ry="16" fill="#3b82f6"/><path d="M0,15 L-3.5,20 L3.5,20 Z" fill="#3b82f6"/><path d="M-7,-7 C-6,-10 -4,-12 -1,-12" fill="none" stroke="#dbeafe" stroke-width="1.6" stroke-linecap="round" stroke-linejoin="round"/></g><g transform="translate(-56 424) rotate(10) scale(0.9)" opacity="0.5"><path d="M0,19 C-4,26 4,31 0,38" fill="none" stroke="#f59e0b" stroke-width="1.2" stroke-linecap="round" stroke-linejoin="round"/><ellipse cx="0" cy="0" rx="13" ry="16" fill="#3b82f6"/><path d="M0,15 L-3.5,20 L3.5,20 Z" fill="#3b82f6"/><path d="M-7,-7 C-6,-10 -4,-12 -1,-12" fill="none" stroke="#dbeafe" stroke-width="1.6" stroke-linecap="round" stroke-linejoin="round"/></g><g transform="translate(424 -56) rotate(10) scale(0.9)" opacity="0.5"><path d="M0,19 C-4,26 4,31 0,38" fill="none" stroke="#f59e0b" stroke-width="1.2" stroke-linecap="round" stroke-linejoin="round"/><ellipse cx="0" cy="0" rx="13" ry="16" fill="#3b82f6"/><path d="M0,15 L-3.5,20 L3.5,20 Z" fill="#3b82f6"/><path d="M-7,-7 C-6,-10 -4,-12 -1,-12" fill="none" stroke="#dbeafe" stroke-width="1.6" stroke-linecap="round" stroke-linejoin="round"/></g><g transform="translate(424 424) rotate(10) scale(0.9)" opacity="0.5"><path d="M0,19 C-4,26 4,31 0,38" fill="none" stroke="#f59e0b" stroke-width="1.2" stroke-linecap="round" stroke-linejoin="round"/><ellipse cx="0" cy="0" rx="13" ry="16" fill="#3b82f6"/><path d="M0,15 L-3.5,20 L3.5,20 Z" fill="#3b82f6"/><path d="M-7,-7 C-6,-10 -4,-12 -1,-12" fill="none" stroke="#dbeafe" stroke-width="1.6" stroke-linecap="round" stroke-linejoin="round"/></g><g transform="translate(28 196) rotate(4) scale(0.62)" opacity="0.5"><rect x="-12" y="-9" width="9" height="3.6" rx="1.2" fill="#ec4899" transform="rotate(-25 -8 -7)"/><rect x="4" y="3" width="9" height="3.6" rx="1.2" fill="#8b5cf6" transform="rotate(35 8 5)"/><circle cx="8" cy="-9" r="2.3" fill="#f59e0b"/><circle cx="-8" cy="8" r="1.9" fill="#8b5cf6"/><circle cx="0" cy="-1" r="1.5" fill="#ec4899"/></g><g transform="translate(508 196) rotate(4) scale(0.62)" opacity="0.5"><rect x="-12" y="-9" width="9" height="3.6" rx="1.2" fill="#ec4899" transform="rotate(-25 -8 -7)"/><rect x="4" y="3" width="9" height="3.6" rx="1.2" fill="#8b5cf6" transform="rotate(35 8 5)"/><circle cx="8" cy="-9" r="2.3" fill="#f59e0b"/><circle cx="-8" cy="8" r="1.9" fill="#8b5cf6"/><circle cx="0" cy="-1" r="1.5" fill="#ec4899"/></g><g transform="translate(165 122) rotate(0) scale(1.0)" opacity="0.42"><path d="M0,-7.0 C1.54,-1.54 1.54,-1.54 7.0,0 C1.54,1.54 1.54,1.54 0,7.0 C-1.54,1.54 -1.54,1.54 -7.0,0 C-1.54,-1.54 -1.54,-1.54 0,-7.0 Z" fill="#f59e0b"/></g><g transform="translate(338 52) rotate(12) scale(0.8)" opacity="0.42"><path d="M0,-5 C1.1,-1.1 1.1,-1.1 5,0 C1.1,1.1 1.1,1.1 0,5 C-1.1,1.1 -1.1,1.1 -5,0 C-1.1,-1.1 -1.1,-1.1 0,-5 Z" fill="#fde68a"/></g><g transform="translate(338 532) rotate(12) scale(0.8)" opacity="0.42"><path d="M0,-5 C1.1,-1.1 1.1,-1.1 5,0 C1.1,1.1 1.1,1.1 0,5 C-1.1,1.1 -1.1,1.1 -5,0 C-1.1,-1.1 -1.1,-1.1 0,-5 Z" fill="#fde68a"/></g><g transform="translate(-18 236) rotate(0) scale(1.0)" opacity="0.42"><circle cx="0" cy="0" r="2.2" fill="#ec4899"/></g><g transform="translate(462 236) rotate(0) scale(1.0)" opacity="0.42"><circle cx="0" cy="0" r="2.2" fill="#ec4899"/></g><g transform="translate(254 152) rotate(20) scale(0.7)" opacity="0.42"><path d="M0,-7.0 C1.54,-1.54 1.54,-1.54 7.0,0 C1.54,1.54 1.54,1.54 0,7.0 C-1.54,1.54 -1.54,1.54 -7.0,0 C-1.54,-1.54 -1.54,-1.54 0,-7.0 Z" fill="#f59e0b"/></g><g transform="translate(108 218) rotate(0) scale(1.0)" opacity="0.42"><path d="M0,-5 C1.1,-1.1 1.1,-1.1 5,0 C1.1,1.1 1.1,1.1 0,5 C-1.1,1.1 -1.1,1.1 -5,0 C-1.1,-1.1 -1.1,-1.1 0,-5 Z" fill="#fde68a"/></g><g transform="translate(264 304) rotate(0) scale(1.0)" opacity="0.42"><circle cx="0" cy="0" r="2.2" fill="#ec4899"/></g><g transform="translate(140 -32) rotate(15) scale(0.9)" opacity="0.42"><path d="M0,-7.0 C1.54,-1.54 1.54,-1.54 7.0,0 C1.54,1.54 1.54,1.54 0,7.0 C-1.54,1.54 -1.54,1.54 -7.0,0 C-1.54,-1.54 -1.54,-1.54 0,-7.0 Z" fill="#f59e0b"/></g><g transform="translate(140 448) rotate(15) scale(0.9)" opacity="0.42"><path d="M0,-7.0 C1.54,-1.54 1.54,-1.54 7.0,0 C1.54,1.54 1.54,1.54 0,7.0 C-1.54,1.54 -1.54,1.54 -7.0,0 C-1.54,-1.54 -1.54,-1.54 0,-7.0 Z" fill="#f59e0b"/></g><g transform="translate(332 376) rotate(0) scale(0.8)" opacity="0.42"><path d="M0,-5 C1.1,-1.1 1.1,-1.1 5,0 C1.1,1.1 1.1,1.1 0,5 C-1.1,1.1 -1.1,1.1 -5,0 C-1.1,-1.1 -1.1,-1.1 0,-5 Z" fill="#fde68a"/></g><g transform="translate(24 410) rotate(0) scale(1.0)" opacity="0.42"><circle cx="0" cy="0" r="2.2" fill="#ec4899"/></g><g transform="translate(504 410) rotate(0) scale(1.0)" opacity="0.42"><circle cx="0" cy="0" r="2.2" fill="#ec4899"/></g><g transform="translate(396 204) rotate(10) scale(0.75)" opacity="0.42"><path d="M0,-7.0 C1.54,-1.54 1.54,-1.54 7.0,0 C1.54,1.54 1.54,1.54 0,7.0 C-1.54,1.54 -1.54,1.54 -7.0,0 C-1.54,-1.54 -1.54,-1.54 0,-7.0 Z" fill="#f59e0b"/></g><g transform="translate(-28 330) rotate(0) scale(1.0)" opacity="0.42"><path d="M0,-5 C1.1,-1.1 1.1,-1.1 5,0 C1.1,1.1 1.1,1.1 0,5 C-1.1,1.1 -1.1,1.1 -5,0 C-1.1,-1.1 -1.1,-1.1 0,-5 Z" fill="#fde68a"/></g><g transform="translate(452 330) rotate(0) scale(1.0)" opacity="0.42"><path d="M0,-5 C1.1,-1.1 1.1,-1.1 5,0 C1.1,1.1 1.1,1.1 0,5 C-1.1,1.1 -1.1,1.1 -5,0 C-1.1,-1.1 -1.1,-1.1 0,-5 Z" fill="#fde68a"/></g><g transform="translate(196 306) rotate(0) scale(0.8)" opacity="0.42"><circle cx="0" cy="0" r="2.2" fill="#ec4899"/></g><g transform="translate(20 30) rotate(0) scale(0.9)" opacity="0.42"><path d="M0,-7.0 C1.54,-1.54 1.54,-1.54 7.0,0 C1.54,1.54 1.54,1.54 0,7.0 C-1.54,1.54 -1.54,1.54 -7.0,0 C-1.54,-1.54 -1.54,-1.54 0,-7.0 Z" fill="#f59e0b"/></g><g transform="translate(20 510) rotate(0) scale(0.9)" opacity="0.42"><path d="M0,-7.0 C1.54,-1.54 1.54,-1.54 7.0,0 C1.54,1.54 1.54,1.54 0,7.0 C-1.54,1.54 -1.54,1.54 -7.0,0 C-1.54,-1.54 -1.54,-1.54 0,-7.0 Z" fill="#f59e0b"/></g><g transform="translate(500 30) rotate(0) scale(0.9)" opacity="0.42"><path d="M0,-7.0 C1.54,-1.54 1.54,-1.54 7.0,0 C1.54,1.54 1.54,1.54 0,7.0 C-1.54,1.54 -1.54,1.54 -7.0,0 C-1.54,-1.54 -1.54,-1.54 0,-7.0 Z" fill="#f59e0b"/></g><g transform="translate(500 510) rotate(0) scale(0.9)" opacity="0.42"><path d="M0,-7.0 C1.54,-1.54 1.54,-1.54 7.0,0 C1.54,1.54 1.54,1.54 0,7.0 C-1.54,1.54 -1.54,1.54 -7.0,0 C-1.54,-1.54 -1.54,-1.54 0,-7.0 Z" fill="#f59e0b"/></g><g transform="translate(124 24) rotate(0) scale(1.0)" opacity="0.42"><circle cx="0" cy="0" r="2.2" fill="#ec4899"/></g><g transform="translate(124 504) rotate(0) scale(1.0)" opacity="0.42"><circle cx="0" cy="0" r="2.2" fill="#ec4899"/></g><g transform="translate(300 -32) rotate(0) scale(0.9)" opacity="0.42"><path d="M0,-5 C1.1,-1.1 1.1,-1.1 5,0 C1.1,1.1 1.1,1.1 0,5 C-1.1,1.1 -1.1,1.1 -5,0 C-1.1,-1.1 -1.1,-1.1 0,-5 Z" fill="#fde68a"/></g><g transform="translate(300 448) rotate(0) scale(0.9)" opacity="0.42"><path d="M0,-5 C1.1,-1.1 1.1,-1.1 5,0 C1.1,1.1 1.1,1.1 0,5 C-1.1,1.1 -1.1,1.1 -5,0 C-1.1,-1.1 -1.1,-1.1 0,-5 Z" fill="#fde68a"/></g></svg>
